<?xml version="1.0" encoding="UTF-8" standalone="no"?>
<!-- Created with Inkscape (http://www.inkscape.org/) -->

<svg
   width="518.98846mm"
   height="141.74434mm"
   viewBox="0 0 518.98846 141.74434"
   version="1.1"
   id="svg1"
   xml:space="preserve"
   xmlns="http://www.w3.org/2000/svg"
   xmlns:svg="http://www.w3.org/2000/svg"><defs
     id="defs1" /><g
     id="layer1"
     transform="translate(-7.4594739e-6,-46.179612)"><g
       id="g4"
       transform="translate(45.950747,-12.543423)"><path
         style="font-size:50.8px;line-height:1.25;font-family:'Inter Variable';-inkscape-font-specification:'Inter Variable, @opsz=32,wght=900';font-variant-ligatures:none;font-variation-settings:'opsz' 32, 'wght' 900;text-align:end;text-anchor:end;stroke-width:0.397551"
         d="m 80.119155,174.80457 v -36.95899 h 15.701367 q 4.415238,0 7.639848,1.5875 3.22461,1.5627 4.96093,4.46485 1.76114,2.87734 1.76114,6.84609 0,3.94394 -1.76114,6.84609 -1.73632,2.90215 -4.96093,4.48965 -3.22461,1.5627 -7.639848,1.5627 h -9.773047 v -8.48321 h 9.004102 q 1.562695,0 2.678906,-0.5457 1.141016,-0.5457 1.761133,-1.53789 0.620114,-0.99219 0.620114,-2.33164 0,-1.36426 -0.620114,-2.33164 -0.620117,-0.99219 -1.761133,-1.53789 -1.116211,-0.54571 -2.678906,-0.54571 h -4.613672 v 28.47579 z m 32.915825,0 v -36.95899 h 28.62461 v 8.73125 h -18.30586 v 5.55625 h 16.89199 v 8.4336 h -16.89199 v 5.50664 h 18.30586 v 8.73125 z m 31.10507,-28.22774 v -8.73125 h 31.35313 v 8.73125 h -10.51719 v 28.22774 h -10.31875 v -28.22774 z m 34.32969,28.22774 v -36.95899 h 15.70137 q 4.41523,0 7.63984,1.5875 3.22461,1.5627 4.96094,4.46485 1.76113,2.87734 1.76113,6.84609 0,3.84473 -1.83554,6.64766 -1.81075,2.80292 -5.15938,4.34082 -3.32383,1.51308 -7.91269,1.51308 h -8.80567 v -7.98711 h 8.58242 q 1.5627,0 2.67891,-0.57051 1.14101,-0.5705 1.76113,-1.5875 0.62012,-1.01699 0.62012,-2.35644 0,-1.36426 -0.62012,-2.35645 -0.62012,-1.01699 -1.76113,-1.5875 -1.11621,-0.5705 -2.67891,-0.5705 h -4.61367 v 28.575 z m 20.46387,0 -8.03672,-16.76797 h 10.54199 l 8.23516,16.76797 z m 30.06327,0.59531 q -5.03535,0 -9.12813,-2.20762 -4.06797,-2.20762 -6.44922,-6.44922 -2.38125,-4.2664 -2.38125,-10.39316 0,-6.17637 2.38125,-10.44278 2.38125,-4.2664 6.44922,-6.44921 4.09278,-2.20762 9.12813,-2.20762 5.03535,0 9.10332,2.20762 4.06797,2.18281 6.44922,6.44921 2.40605,4.26641 2.40605,10.44278 0,6.15156 -2.40605,10.41797 -2.38125,4.2416 -6.44922,6.44922 -4.06797,2.18281 -9.10332,2.18281 z m 0,-8.92969 q 2.43086,0 4.11758,-1.19062 1.68671,-1.21543 2.55488,-3.47266 0.86816,-2.28203 0.86816,-5.45703 0,-3.19981 -0.86816,-5.48184 -0.86817,-2.28203 -2.55488,-3.47265 -1.68672,-1.21543 -4.11758,-1.21543 -2.40606,0 -4.09278,1.21543 -1.68671,1.19062 -2.57968,3.47265 -0.86817,2.28203 -0.86817,5.48184 0,3.175 0.86817,5.45703 0.89297,2.25723 2.57968,3.47266 1.68672,1.19062 4.09278,1.19062 z m 20.93516,8.33438 v -36.95899 h 15.42851 l 3.32383,11.55899 q 0.42168,1.48828 0.99219,3.64628 0.57051,2.13321 1.16582,4.48965 0.62012,2.35645 1.11621,4.51446 0.5209,2.1332 0.84336,3.62148 h -2.6541 q 0.32246,-1.48828 0.81855,-3.62148 0.5209,-2.15801 1.11621,-4.51446 0.59531,-2.35644 1.14102,-4.48965 0.57051,-2.158 0.99219,-3.64628 l 3.27421,-11.55899 h 15.45332 v 36.95899 h -10.12031 v -14.2875 q 0,-1.26504 0.0496,-3.27422 0.0744,-2.00918 0.14883,-4.39043 0.0744,-2.38125 0.12402,-4.81211 0.0744,-2.45567 0.0744,-4.58887 h 1.16582 q -0.5209,2.1332 -1.14102,4.56406 -0.62012,2.40606 -1.24023,4.78731 -0.59532,2.35644 -1.14102,4.36562 -0.5457,2.00918 -0.94258,3.34864 l -4.29121,14.2875 h -8.33437 l -4.36563,-14.2875 q -0.39687,-1.33946 -0.96738,-3.34864 -0.57051,-2.00918 -1.19062,-4.36562 -0.62012,-2.38125 -1.26504,-4.78731 -0.62012,-2.43086 -1.16582,-4.56406 h 1.31464 q 0,2.1332 0.0496,4.58887 0.0744,2.43086 0.14883,4.81211 0.0744,2.38125 0.12403,4.39043 0.0744,2.00918 0.0744,3.27422 v 14.2875 z m 58.76231,0 v -12.60079 l -13.7666,-24.3582 h 11.80703 l 5.3082,10.36836 q 0.64493,1.28984 1.24024,2.57969 0.62011,1.28984 1.21543,2.57969 h -1.46348 q 0.5457,-1.28985 1.09141,-2.57969 0.5705,-1.28985 1.19062,-2.57969 l 4.98574,-10.36836 h 11.73262 l -13.36973,24.3582 v 12.60079 z m 24.58144,0 V 167.0655 L 347.092,151.01687 q 1.68672,-1.98437 3.47265,-3.91914 1.81075,-1.95957 3.6959,-3.94395 l 1.16582,3.42305 q -2.55488,0 -5.13457,0 -2.57969,0 -5.15937,0 h -11.50938 v -8.73125 h 30.1625 v 7.73906 l -13.64258,16.12305 q -1.66191,1.95957 -3.44785,3.91914 -1.76113,1.93477 -3.59668,3.89434 l -1.16582,-3.44785 q 2.57969,0 5.15938,0 2.60449,0 5.18418,0 h 11.6582 v 8.73125 z m 49.13808,0.59531 q -5.03535,0 -9.12813,-2.20762 -4.06796,-2.20762 -6.44921,-6.44922 -2.38125,-4.2664 -2.38125,-10.39316 0,-6.17637 2.38125,-10.44278 2.38125,-4.2664 6.44921,-6.44921 4.09278,-2.20762 9.12813,-2.20762 5.03535,0 9.10332,2.20762 4.06797,2.18281 6.44922,6.44921 2.40605,4.26641 2.40605,10.44278 0,6.15156 -2.40605,10.41797 -2.38125,4.2416 -6.44922,6.44922 -4.06797,2.18281 -9.10332,2.18281 z m 0,-8.92969 q 2.43086,0 4.11758,-1.19062 1.68672,-1.21543 2.55488,-3.47266 0.86816,-2.28203 0.86816,-5.45703 0,-3.19981 -0.86816,-5.48184 -0.86816,-2.28203 -2.55488,-3.47265 -1.68672,-1.21543 -4.11758,-1.21543 -2.40606,0 -4.09277,1.21543 -1.68672,1.19062 -2.57969,3.47265 -0.86817,2.28203 -0.86817,5.48184 0,3.175 0.86817,5.45703 0.89297,2.25723 2.57969,3.47266 1.68671,1.19062 4.09277,1.19062 z m 20.93514,8.33438 v -36.95899 h 10.51719 l 9.0041,14.51074 q 0.59531,0.94258 1.48828,2.57969 0.91778,1.61231 1.90996,3.47266 1.017,1.86035 1.88516,3.49746 l -1.24023,2.87734 q -0.12403,-2.00918 -0.19844,-4.56406 -0.0744,-2.57969 -0.12402,-4.96094 -0.0248,-2.40605 -0.0248,-3.86953 v -13.54336 h 10.31875 v 36.95899 h -10.51719 l -8.40879,-13.49375 q -0.74414,-1.21543 -1.86035,-3.10059 -1.0914,-1.90996 -2.35644,-4.2416 -1.24024,-2.33164 -2.50528,-4.7625 l 2.03399,-0.59531 q 0.19844,2.60449 0.27285,5.10976 0.0992,2.50527 0.0992,4.48965 0.0248,1.98437 0.0248,3.10059 v 13.49375 z"
         id="text16"
         aria-label="PETROMYZON &#10;&#10;" /><path
         style="fill:#000000;stroke-width:0.683604"
         d="m 49.845089,154.42826 c -2.8986,-0.70842 -5.87648,-1.0094 -8.82776,-1.41415 -2.06928,-0.28456 -4.51846,-0.83533 -7.36956,-1.65716 -5.8249,-1.16692 -11.81127,-1.93392 -17.21275,-4.62754 -5.58662,-3.26725 -7.6326297,-7.78472 -8.6444197,-14.07243 -0.86756,-6.97025 4.1552897,-13.48213 10.5680297,-15.47741 23.49243,-7.30951 52.52418,-0.0496 67.11849,-3.10672 18.198101,-2.18201 2.93422,-13.86026 -29.11327,-14.159198 -31.08786,-0.24683 -43.33547,-1.44788 -45.85903,-1.7128 -0.9433597,-0.099 -3.3000397,-0.182322 -5.2370697,-0.184962 -3.11471,-0.004 -12.89871,-0.56613 -16.4261303,-7.252645 -1.23291,-3.177942 -0.83391,-6.778993 2.9765403,-6.972713 6.13277,0.16987 11.63565,3.788945 17.31879,5.818268 10.2309697,3.498524 41.6172697,-14.696132 55.3215897,0.701466 7.94942,0.891621 8.05421,0.89347 13.76585,0.977913 17.93652,-13.783107 58.350961,36.943291 -8.05392,39.353731 -12.34683,0.44817 -24.61084,-1.81284 -37.03907,-1.29015 -9.55129,0.7392 -9.05598,3.7905 -2.315,5.0941 1.61136,0.31161 25.63049,5.03069 34.03532,11.08416 5.51285,4.55255 -0.38504,10.1728 -7.05152,10.18615 -1.34497,0.003 -7.06599,-1.04338 -7.95511,-1.28786 z m -6.12858,-4.87392 c 0.61901,-0.61144 0.60165,-1.56517 -0.0402,-2.20933 -1.00998,-1.01361 -2.73119,-0.31133 -2.73119,1.11436 0,1.51125 1.67858,2.17445 2.77141,1.09497 z m -7.16989,-1.99331 c -0.0548,-0.28753 0.0326,-0.5925 0.23357,-0.81539 0.31087,-0.34473 0.30699,-0.35602 -0.12218,-0.35602 -0.24379,0 -0.54074,0.0979 -0.6599,0.21742 -0.436,0.43756 -0.14167,1.4133 0.42633,1.4133 0.12707,0 0.1752,-0.18099 0.12219,-0.45931 z m -3.07617,-0.30169 c -0.11916,-0.11953 -0.21666,-0.38865 -0.21666,-0.59793 0,-0.20928 0.0975,-0.47835 0.21666,-0.59794 0.16851,-0.16912 0.13643,-0.21745 -0.14443,-0.21745 -0.46728,0 -0.79441,0.33578 -0.79441,0.81539 0,0.4796 0.32713,0.81537 0.79441,0.81537 0.28085,0 0.31295,-0.0485 0.14443,-0.21744 z m -2.70821,-0.72477 c -0.11916,-0.11953 -0.21666,-0.38865 -0.21666,-0.59794 0,-0.20927 0.0975,-0.47835 0.21666,-0.59794 0.16851,-0.16911 0.11636,-0.21741 -0.23471,-0.21741 -0.55092,0 -0.88468,0.30759 -0.88468,0.81535 0,0.50775 0.33376,0.81537 0.88468,0.81537 0.35106,0 0.40322,-0.0485 0.23471,-0.21743 z m -3.24298,-0.78548 c -0.0548,-0.28752 0.0326,-0.5925 0.23356,-0.81537 0.31087,-0.34474 0.30699,-0.35603 -0.12218,-0.35603 -0.24378,0 -0.54074,0.0979 -0.6599,0.21742 -0.436,0.43757 -0.14167,1.41331 0.42633,1.41331 0.12707,0 0.1752,-0.18099 0.12219,-0.45933 z m -3.06931,-0.54358 c -0.0548,-0.28751 0.0326,-0.59251 0.23357,-0.81539 0.31087,-0.34472 0.30699,-0.35602 -0.12219,-0.35602 -1.27391,0 -0.96888,1.63074 -0.23357,1.63074 0.12707,0 0.1752,-0.18098 0.12219,-0.45933 z m -2.93174,-0.84005 c 0,-0.21638 0.13293,-0.54082 0.2954,-0.721 0.2672,-0.2963 0.2682,-0.33807 0.0105,-0.43728 -0.77927,-0.3001 -1.55239,0.64597 -1.03709,1.26908 0.3368,0.40725 0.73115,0.34752 0.73115,-0.11064 z m -2.34711,-1.13646 c 0,-0.24349 0.16197,-0.55656 0.35994,-0.69572 0.41015,-0.28831 0.30089,-0.49231 -0.26365,-0.49231 -0.48952,0 -0.81848,0.32773 -0.81848,0.81534 0,0.38163 0.30736,0.81541 0.57775,0.81541 0.0795,0 0.14443,-0.19922 0.14443,-0.44272 z"
         id="path1" /></g></g></svg>
